<mxfile host="app.diagrams.net" modified="2021-07-29T09:11:05.453Z" agent="5.0 (Windows NT 10.0; Win64; x64) AppleWebKit/537.36 (KHTML, like Gecko) Chrome/92.0.4515.107 Safari/537.36" etag="j99Jit7_equ94ROVyp-E" version="14.9.2" type="github">
  <diagram id="4-Cw5DzWq82ZuDr0jHYN" name="Page-1">
    <mxGraphModel dx="1038" dy="547" grid="1" gridSize="10" guides="1" tooltips="1" connect="1" arrows="1" fold="1" page="1" pageScale="1" pageWidth="850" pageHeight="1100" math="0" shadow="0">
      <root>
        <mxCell id="0" />
        <mxCell id="1" parent="0" />
        <mxCell id="S9fMlFEcEEk1_aqn-8U2-2" value="" style="shape=image;verticalLabelPosition=bottom;labelBackgroundColor=#ffffff;verticalAlign=top;aspect=fixed;imageAspect=0;image=data:image/png,iVBORw0KGgoAAAANSUhEUgAAAPUAAADICAYAAAAwVacWAAAcPklEQVR4Ae2df4xdxXXH7z/8xZ/9AwXzc2O8W9aQVATU0rSoRag/IiVBTW3DxgEbMGCv80MGQrwOCsgmVLVQW6utilKSFNfUVZQY26Q2WUqbxCVgL7Vht6qCqOhigwHLUHD+8T9TfWffuZx73tz37u67++67c79PWs29c2fOzJ05nzlnZt/MS44dPerefecd98GHZ/gXaRt87y++5IaGlmb+1nxtl3vjg8Xt8xOnXncbPpstF/X4632vN1LXjh7b7x7Z9KA78r/lt/sbp/7H/e2Wcbdhw7hLCHX5DcwBkm1apQ4Q6kitc5VKxbKrHdQINaFupCsc88BDqAk1oY5MB+oB9ZlfuQ/OnHEffvgr938ffsg/tgF1oIMOpFDv3bvX8Y9tQB2ovw6kUMc8x+C7Vbtww/bvb/unUL/22uuOf2wD6kD9dSCFemhoyPGPbUAdqL8OEGoOZhzMI9MBQh1Zh9LS1t/S9tqHfYF62Q1/5EbvfcANDY/U1ioMr1ztfv3ur9W2/r0qCvPXZ7Ag1AUtdVOg3r17t8MHIUGuD8i6r/oCtS5QXwOUKx59LP2DRYc1h1WX+LpbeP2+g3wtMJ88edLNzs4S6oKD/SD2aaVQo0HyLCAAX/7gdvfxK66kxeizgr366quEus9tXubgkIEaAAEksZIIAZ0uEPNKxAM6ucZ9CECkEVl5Fhdljk5sc0uv/XRbOXYOq8uDXPtcBgldH+0NeE9AdZZ+dsW3d7iR1be3va9OEypP2gb1h4y895W2gAy5Rtq8dhm+bJlb/7k17pE1E+66T/12pm2kzG6hWF+402fPnnU7duzwf7iWT8jNJtT1dLtFHzJQS6QOoYQWbNwv3/JwJh5KPfrQ9jY4IQvgeiByFspsGSHQUWaoHkEohkfc5V+539fHlwuQh0fcsuuuT+EAWOmzVh0xMNkypC3wfiO3rU/zSzxC/+4T2zJeBeTbgQ7p0G6omywaojxdD5FbBtSQBWjPnDnjNm3alNZ9bGzMwc0OAY08hLrmUB8+fNidOHEi7XBRKgmhnFbR8xQxlBZyukFtAYD8DKzDI17xIUfqJSHSIr/c+7A1L2+LN1Y6BFNGjkrfCWrAjuc2r22PEPyI05BbGb3ehwAGzIAaz0LyCXXNoZ6amnJvvfXWXOeaRSpxJUNQh4DJU/xuUMvimJfZqoMuE/nttEDqhlCn9UraYRBIlTjwrp0gz3s31B35QgOOzWPvURfELSbUKENDLJAfOnQoCDTSE+qaQ/3SSy+5t99+O111trBaa4NOB0RtIA0NeYsZiu8KtVowg5Jjjp2BpAM4qE/b33zTt2TkvRfkh4CUcudjqa0L3w+o4XrDBQfc+LPuuLyHhIQ6oFMhPRvQuOTo0aPunXfe8RDB5dUwQeGw+GNBxT0sZGYA6ABSEag9zA9tz86DVaOhrJAlRZytXyfr6RW3NedGmaLICBcKNeRYWPHOofa06ZA3ZKnLmlPL+8Eyy7+rOllppCfUNYf62LFj7t133/XKDXC0W+sXjm5c4eM0UFD+ZZ/5fOb/yRZyKHWey5yZLytwUYaVI0op0On64ToDdMCllvRF0ul3RHkATq9oiyyENi3k6+fIpwcN3bby/jrOLqqVDbVYa1kF1+2Ka1jw0KebVbdyeF/9gJC8/PLL7tSpUxmL1a1jPNR2cUrB2S0/n1ff8eyDePsgeeWVV9zp06cJNQeleekAB4XBHRTmDbW4yOJqwoVkBw9uB7Nvmtc3yfT0tHvvvfcIJi01dSASHSDUkXQkLXLzLHJenyczMzPu/fff5yhNuKkDkegAoY6kI/NGbcY3z4ITakJNCx2ZDvQEtf/WVGDbJK1D86wD+3xw+jwDtXzDyX5bKq/DFgtq+XZW5ltgNRpNZdNE3re38tqT8YMDRp37IgM1XiT0PeYqXhADzGJBLV+ZtF+LLPsrkfh3IQ4mqKL9WGZzB4hGQg2FhzXFWVwaOlzj23X6QIFe4CDUzQWrF73pNW9HqMUNxrfHZBMCCsxs1jAbF6RC8s0zWFy5hpyQ9c3Ia22WyLPUONoHR/zgqB9sepDy5huGoIYM7GDC5gaRJ660WPU8l9puiMA9oSbUokf9DDtCDbA0zKGK5e0lRloAnDn2qLWLCnJFFtx9ewySDCahAaCfUAvQGnJx3XWcbGtEeryX5MsbAOTdGRL6xdCBXKhhXbsBjQp1g9ouugFUDSuuNeTykjadxJcVAjzrfgNY7DkW9xvghvYe4zn2HEMG/nAteaR+IfnyjCFhXkwdCEIte4g1fHmV6Aa1BdbCmpcf+YqUn1evbvGADgDrj7Ws1hUXmRpkDbg8l5DuN+EVXehnGIQaoGXODevw76Q8KPESgLIb1KE0knexobaW2jY8LTWhtDpRh/t8qAFyzrE/+sV6hdrPqc2ZZBgI8hbVFntOrd9NW2Qdb4/7gUVHnE1jLb9+zmsOGIulAxmoBSaZBwM4ccX18Tx6NVv2VftQrYTrNGJxdZyUgRfLlNNaacdxSZCp0yFtGVDDZcb/pPUn78hc/JsLcOpPaJ6NOP0R0BGnF9UWqyMpl4OE6EAGaolkSAWhDtRXBwh1h/UCKnZ9FbvJfUeoCXVmLaDJMMTy7oSaUBPqyHSAUEfWobFYG77Hwqc+hJpQ01JHpgOEOrIOpYVbuIWLpe0INaGmpY5MBwh1ZB0ai7Xheyzc46gv1PJjeOpbbFSEhSsC2y6etlt0qDt9N7wMRepFfi95y6g7ZcQD0iD1JaE2v1E9SJ3DuhD6hehACjU2bOBQBPwAuuyQkg0eejOHL0Rc30cfS3+TWTZtSCXSvCqN3fQhafVGD6TJO5zBysS9tbZ2cwjkIZ2UhdDK8fVCPQOufNG6QW4Zm010PXlNqBeiAynUck6Yh7MFrcAFCPRuKVxbUBCn00hlLHQS3ymEbClb0qFemTgZWAIgSh4fttLZ+uJZWXWT8gg1IRRdqDLMQO2hHB7xVk0rvIYa8Ot0uvI6j8SH4uRZXthWxvCILxPxmTwF9nsjPQaEsqBuqxtXz7N9wvaovD3mDXXIvU3d14CrWwRqQKdl4Fpb5U4gWflIu/zB7W3yFgp1t7plBhkqdOUKzf4YcvOGuhNgoQa10Nk0gMa67W1lFLTUyDca+BmghVrqQnUjyAR5wHRg3lADSig7/jKA5sxdAaxOi2tYUgCI/HiesaJmPi9lIJ+FH/d6cQteBBb6cAyT5INsWP5MGa1OKKtuUhbn1JxTiy5UGaZQAw4ovwDngWkdvi9gaJdYnmu3OQQO4NXusJaBF7fPIW/4xhU+j9RFGghg6/IEdMRJ2TYNyhtZfbvPh2ciK1R2L3WDPEJNqLV+VXWdQl1VBVguQaAOlKsDhHrA5kNU8HIVvIntSagJdWZK0kQIYntnQk2oCXVkOkCoI+vQ2KwO32f+0xFCTagLW+rXXnvNdfsjhPOHsOw2I9SEmlBHpgOEOrIOLXvU1/K6WWk81+l5XY3VJtSEujCIhLoaSOc7OBJqQk2oI9OB5Nln/93N/NcvC3fsfEcNps+O7nm/eV2HdhJLPTo66sbHx4OLZnV4j9jrSKj7PEoT6uwgFztgVbxftVCr00uWXXe930MtGzZkg4Y0SnDjh9qgIZtOsEsLGzNkk4ds8LCbQ9r2hXc4QWX5yOXu/pUb3bdW3+OuvvKqBXk1od/Elt+zDv3eNX7EXn/kN67HxsYcfksbv5k9NTXlk+B+69at6W9uW3mSR+Tht7knJyedThf6HW4pU/pgxYoVLkmStr9zzjkntdySlmF1g1e1ULesJPZcjz60Pd1pBYBD+6KtotitkwIqAJdBAGmQD3DLLi0v/94H0u2feC7p7WCCZ2VALXUvYqkBtAZOoNRxSAOY8QzxgBxgYvBAPEKUKYOJBlQA1vKkfhJKmTof3e/qQJV+KRIOBNQWTlQccSHA9EvhuYCKeECNAcKnMQcraKhtPpEJsP0goPZjy7Oywm5QA7jp6ek2bwCQAWSBFWmQFvXSMi3UAFeDOZ/3sHkJNaFuU8w8hQqdjtIGtbjq5nTShUCNPOLm29C66Xl1Xmi8BjAko9NzDbK+1nks1DpdqDyJE4suLrqEekAg1IS6PKhzTlWxFrdXSy0KvpihBjBUThWWGkCfPn06tfxSL1rqekAs/SXhQLjf3Sx1aA4s8+eFWGocd4QFNciQhkCIe8zlUZ6OL3tOLXNhlCHzW20RQ9YVgOFP6qXT6IHCWuo8YPWcHHWYnZ3183ORD5n46HqJpV66dKm79tpr039p4frcc89127dvT+snchj2f2CoFmrjUvs5tIkTaPFMu8pwk3HsEeLEVZfnWP2WgQBxYtElLRQNzyFD8iDMc73LhBplAyj5yAKXVv6QK4w8SCMLWJIf0AmAehVcyw3J0wME5OJefyBLVtclrUANeAGxrISfd955bufOnR5y/R687j/QaPNqoe7z/4ipZL0pmUDdKWQb99bGZbSfh/pnP/8F3SYOMF11oBPM8qwMpaSM3gYGD/X+pw927VA2dG8NHUP7Cbidwhjes+7v4KE+erT9/6J1fzHWv/xBqBPM8oztXn67z7dNOaem213YSxNwO4XzVUCmL38QINSEujDUBLB8ABejTQk1oSbUkekAoY6sQxdj5KfMelho6SdCTahpqSPTAUIdWYfKaM2wXta1zP5KDj7zrDt2bIajNeGmDkSiA8muXU+6ZyYn2aGRdGiZIz5l1dPaJ4ePTLk33zyZQm03OmA3EzZMyM4lXMsmCbnO2wwhO6nSTRMdjgyye5yxWQPy9Q/IQ8n4G9D1VDQOEP3rt+TFw0fc8eNvzkEd2JII2OzuJR+35eG2U0dwJJFsZ5RdUjIYoFNlwPC7sZRlBLweYIlr7dSyPwJPqPunGISwvm2dgdqDOLEtBTOvYwF1BsIWjLLFEfn0tZaDMrQFxiCQHkEkUDNMPSfddryuL2j97LvkhcNH3BsnWpa6BWPqLuPooIDLDKittUWlNaBIk5GjjiHSlj8P/n42AssiLDHpQBvU9uW89TYnbwJY/Nm0GlB9bdPpez0Q6HheEzTqwMJ0IAM1QLRudR7UsMJInza8Ob1zPkcGoUw7SEB2yEvgQtnCOjrtJ05tPtLZSNsi+eGep9x//3LuqBwPknKTvfuc535/5vPpofniZmcgVwtj8hyhdr21ogFsnS60SIb0hJpQa73hdbs+JBu//BX37L8+N6/RC1bVAszGbW9ctgnbpAodSDZsWO9+MvkTQh2pK1aFUrHMagezZP3dd7oDB58uDLV1k2mxq+1AAsT2tzqQbFh/lztwYH9hqK0A3lOpqAODpQPJ3Rvucgf+ZR+hpvtNHYhEB5J1hJrKHIky02OY8xiStXevo6WmUnNgi0gHklvX3+EOHPwxOzWiTqXFGqw5br/7I/mH3bvcy9PHCHUZUOf8Ome/O5XlNRzq51980c2+MUuoCTV1oAwdGAAZ/rvfx4+faGSHhn5Cl1au2VYuhv5PXjh82BFqKnIMysx3mNPj5Bdwv48fr9xS4/vkekNH6DgjbNPEzi1JZzd9yIYUfOtNrpE2L53IScPA5hX7DToryyuS+U3t0LfspD7d6gZ59j1Du9Wwew6bY1B3tJ2+t3XUz5DeHlGlYfjs7/yhe2TNhLvlD1ZWrhO6XrwubniSF48cccff/OiQhCoaD4qOv7TswHFGUPTRiW3pWWlIC1Dsri+kW77lYa+4cr4ZlD4jvzXvWYj7jTItNGm9h4Y8YCGokaZI3UJbXQXKkFzfBlsezmxTvey3Pv1ROxU8okregVAXh0fabNBC736/caK6OTUUvchxRnkAQqkBrTRsCH7EwToJ5JI2T6Y8D4UAzA8QwyNpmTod6hKCD2mK1M2+j8jOKxfpOw0yfpAocESVlMMwAqif2LnTHThY3e9T5ylxRrnsAQxqhdEOCvYecnqBGpCm7nlrr3kniLpBbQcwW7dQeVK+9UrwbkXaD2lEhg8D04xMe6v2ZXz9IE8e/+533d591X33OwRhSJHyrKpV6pA8C47Iz5MpzwGYddvzLKbOgzrJvQ6L1M2+j84fup5vesjw1tscURWSzbj6AY0+Sz7xyU+6q6+5JqiE/epUgAOAdHlQVr1AFAIipJyhdHlQ23JRB20N8TwDaGCur+uMa8jI5FFWr1DdAnNgyEVeu6aA+G5Q43loYIK3gfaz9eecup4g635Mzl+yxF10ycVtnasT9eMaiqddxJCLC2B0Gg096ggFlueSX8dpYJEeSo04m0fe1z5HOqzKI4+W1VYvdSQUyp9v3ULl6vKsPKk/wkLpOrjfhDoCqD92/vnuwosvqhxqAYlh/ZWKfVhtHw6MpaYiVKsIbP942j9ZcsESd/EAuN9UqniUin1ZbV8mF1xwgbv00kvpfqsFLSpltUrJ9u+t/Qk1YeaAHpkOEOrIOpRWrjcrF0P7EWpCTUsdmQ4Q6sg6NAZLw3fozdsg1ISaljoyHSDUkXUorVxvVi6G9iPUDYB6x44dbnp6utYWeffu3e7QoUO1fod+DRiEmlDXAhRCXdwDaSTUsnlEdjDJhghszLCjqaSVNLJRBOmwcwqbShCHQxiQRnZp+fR244Q59kjS2zJxP3zZMrf+c2v80UL4Te5Qmm5xY2Nj7uTJky70efXVud8k1zIAjv7oNLjGZ2pqyp09e9adOXPGbd26NZWv04pMWFb9mZycdEiHeiHNpk2bvBydxlrjUBpJb9NKuU0PGwk1Oh3w4dijFOQWcLKrKk8x8FyDLTuqvByzNVMGDZGFAcLKRxz+JI2EZUAtsoq43wAaA4AAh7yARsfhHjADNBkAECLP7OysQzlSJuDVoMsAo+VJWh0iTwhWlBOK13l5PWfNawP1tb/xa27shiT4d9Xyj6XKVLRjAaGFCXEp5DluOSD2+VrHGdl7ffCChtqm0/XUeXR8WdfdoAZwgAmw2jIBEoBCvL7WMi3U+pmV1+0+D968+G7ymvi8NlCX3TmA11rNENSIE9dbQmupNeQaUA21uOoiw4a2LmW+bzfIADOgBpy2XA1TUah1HitP34v1FndawpBFLipTy2/qNaFWFtlCjXtrza3Ftfd5UNt0/VS4blBXYakFaMCq2yIP3rx4nZfXqft9obvk0uIra7E0HIC11tFCDaAzacycGW1hYc2DGmmtfN+WOXP5sufUp0+fTt1rWXzSFjEEDQYDzJXFghe11Hiv0NwYZWCRDXJRB8yvtcuPeDzX9fJtNDTkpwB6Pi5pIVPSMGxBvWTJ+e6SS5p18glgFfcXoEEZdJxYZwCL44EkLUJ9nNHS378h/XEBOUZI5MiggTzaXZfnWmZm4Gh5DmVCjfcDKPoTggEg6o8siiG/fgZZApVdBddydR7I1VBCJtLqD2RhhRwf5EUa/aflyeCgn/O6BfWFF13qhj6+LNN4bJysMrE92B510oHk4suucUsv/11CbaxCnTqRdeWgo3Ug+c0/Hne/94XNhJpQUwci0YHkxnXfd1+858fs0Eg6VI/YvG6mBU++sGGPu/UbzxNqQk0diEQHkpUb97u1E4fZoZF0KK1zM62z7vfk5vH97o7NhFo3Cq8JRp11ILn5ywfdum8eo6WmpaYORKID3v1e982jje1QfPFDfzmkziM0604PAzqQ3LThqUa734SaIMQ2GCZjd/+ju2PzzxtrqWPr0F7eB1/bDH3vuheZ/c6LY5vwFdZ+lztI5SXjm//Z3XrvwUY3wiB1SJV1IdRxeC3JYz+YdusfmGwc1HC7ZVNF25y6tXMKRxWNrL7dp0Oayz51TbrBQzaCAMLgxo/A0UhIqzd0QOay665Pj0Qaah280Lb32h6LpBZ0lo9c7u5fudF9a/U97uorr1pQP8quLb25Qq5DlltvrEA62cQh2ymx2QLHHuGDTRw49gibNfCx8iSPf+icT4dNHTqdbB6RNAilTBkEcR/6NHHjR/Lk5Iz7s+80d/Xbbp0UJREABXhALD9yjzyIR6jT62vAq8EXeTrOz+cf2u6wXVPyhmQjDrvAkF7SSVgG1CKriKUG0Bo4gVLHIY3syEK8gGW3W8pgogEVgLU8qZ+EUqbOJ8/ofg+5ZM9PZ9yfP9bc/1MDGAAoVlKUA6HdGy1AhsDT+XANACU97vPKQRpffsv62nwiNy+/PC8j7AY1gAsdNQzIALLsjdZgaZkWaoAbArPIu+Tl1WUXkRNjmmTvz2bc9u9MtVmAGF829E6dYCkMtbjrjz6WuvR+77VyweFSa4ssdbHxgFymBTaUPduSt+xQAxiS3em5hklf6zwWap0uVJ7EiUW37nVoQCgqU2THGCa7n4H7/TKhbs1ndScXgjrn5BJrcfMGD6QrYql1vRbrWgMYKqMKSw2gcWoLytZ1oqXOX9RL/vKJF9wdmw9kGkw3XuzXebDhvYtAjfx2fi0LXdr9hjzc6zhJp6HGNABniOOZbnvcj05sa5vHlz2nlrkwypb5rbaIIUsIwPAn9dVp9EBhLXUesHpOjjroI5VQBmTio+slZds5P+qlT3CRdDGHyZ33PenW3fNM2iExv6y8G0C0xxSJq+sXxlqgShysKf5wj+fpKnhrVVqeSXrIxrFHuM8Aa1a/ZfHLuuWh+uW53mVCjfYBFPKRBS5pN4QhVxh58EwWsCQ/oBMA9Sq4lhuSpwcIyMW9/kCWrK7btFaeHqT0e8R8ndx81z+5tfc91yioB6lDrfs9SHVjXfJd3EFum+Sm9XvcOm69rGxQgyUH2IOsJKxbveBOVm3Y6+7a0twNHf1WWLu6refY/a4Ly6sXrEX7K7lpfJ+7c8tLtBTqW1pFG4/p4oSi7v2arBrf526fOEKoCTV1IBIdSFaO73O3cU5NhY5EoetuZcuoP6GmMnNAi0wHkhW01FTqyJS6DGtXZxkeap4mygWfOisx657V3+RP1+9xa7dwoYyKkVUMtkd92yP54qYfudXf+CldULqg1IFIdCD5mz0zbu3mf2OHRtKhtLD1tbBl9V3ydz+ccWP37CPUhJo6EIkOJH+/Z8atvncPOzSSDi1rtKec+lr85Ht7Ztyae/cSakJNHYhEB5LvE2oqcyTKTO9izrvwUK+9bz8Vm4pNHYhEB+bcb0JNhY5EoWmth1zy+J4ZdyuhJtSEOhod8FCv+frT0bwQR+r6rtqy78rpOw/12q839zRRKlI5isR2HJx2TJ7A6vcm/p+aSjk4Ssm+6K0vkl1PTbtbvrqL7jfnlNSBSHQgefK5Gbdz/yl2aCQdSivXm5WLof2Sm8efdHfc37yfso2h8/gOBDikA8mq8afdOh4RTE+Fnko0OpCs2vg0Dx6kQkej0CHL1bS4ZNXG/e62zS+wUwk2dSASHZiDeuJFdmgkHdo0q8T3bV9XSFZu3O948GB7w1BZ2CZ11QFCTQtNLy0yHSDUkXVoXa0L612eZ9QG9eZtj7vHf/Cf7q6vbuUITuCpAzXUgQzUABlQY9REiPvR5Z9w3/6rH7k/WbWOHVzDDqYFLM8C1qUtM1DbStNqN08hrA7wvn460BFqdmj9OpR9xj4j1HSpOa2KTAcIdWQdSktNS52swNdEJ/gDeYSBMMSiA3NQ81cv6YLSY4lGBzzU/JoorVQsVorvMeT8nPqWieejGaXYqRygmq4DHuovbf4PQk33kzoQiQ54qG/jnJoKHYlCN91K4/3/H/2U77Oo0gplAAAAAElFTkSuQmCC;" vertex="1" parent="1">
          <mxGeometry x="290" y="60" width="245" height="200" as="geometry" />
        </mxCell>
        <mxCell id="S9fMlFEcEEk1_aqn-8U2-3" value="" style="shape=image;verticalLabelPosition=bottom;labelBackgroundColor=#ffffff;verticalAlign=top;aspect=fixed;imageAspect=0;image=data:image/png,iVBORw0KGgoAAAANSUhEUgAAAN4AAAD0CAYAAAD0UJjnAAAgAElEQVR4Ae2d248cx3XGG8h7/oI8MRZ3I0p+iZPAsQ0BUQQ7MGBZL9KDIBiEnYcICQxDMSCEghAbuiFQaEcrUbyJS3J3Kd6v4n15WVJLUuJF5HJJSrzIEhVFzI10LPpFLxV8tfMNT5+pnumZ6Z7u6TkDLKq7+tSp6urz63Oqt6o7Wrf1kDvzwazbN3nSnZ/9xP3uy7v2Z31gNpCzDUQGnt1o7Gbbexsw8HK+s5lR996o+6HP6+DtP2ShZj9cMGtjNUCOg3ep5GO8u793v7t713355e/d/335pf1ZH/StDTSAt3PnTmd/1gdmA/naQDRRe6rpQ82yezwbj9nTxorYgADvlDt/6VN348Yn9md9YDaQsw1E4zWPd+DQKXfh0qdu3rx59md9YDaQsw1E41sPu7MfXHIHDp9yFy7ftA7PucPtxmY3dtiAgWeg2c22ABvoKXjzH/kbt+Dnz7t5Q8N9e7GHnnjK/cnf/axv228etxweN5rYetidq4WaMzmHmgZeOS56Gvg2bNjg8EOaRt5k2ru2Hryz5+fGeDNXihnjwYs8uHh5/Q+AwivCOzK/3z1lvxgmgbt165a7efOmgZdTGBpNbDvsPHhHTrkLHxYDHowyKYQDhA/84lX3xw9+3e68ORlB0k3h2rVrBl5OfT43xoPHE+DByGHs9DZIAYa8QBjnIB9gcBv7IUggQ11Jngt1Llj0ovvaX367oR49ppL1Qa8+TpBle6RX9R5VdKg89uDLI274qZ80nK+UCdXHvkH7oSPpfNkX0MFtyCb1y9B9893Tjy50ryxc5B76xrdifcM6W6X0Yggdv/rqKzcyMuL/sM1fKKQ08NoLH1tdB3k8Bt5ME48HQ9HwYf+B516K5cPwFvzy1QaAUCng8kab8HBF1xGCEXWG2hE03KFhd/9Pn/Xt8fUCtqFhN/+hh+sGDOOvH6u1ETcPXQc7Dec3/OOn6+WZj9Sf+6IXY94Z+vXNCHLoN7SND5pQn2wH9WYBHnQBrLt377pnnnmm3vYnn3zSIaQMQYcyBl7O4J2rebyLTcCDAWljTDKWkCwuZCvwtJFCfwyooWFvnNBDw2QKWZTnvk9r48SGfOXtQgYf0yPkm4EHIHFcl9X9EQIUeRJEraPb/RBkAA7g4VhIv4HXa/DUgw2GTSHwQkadZJytwOMDFa+z1gZZJ8rrEJhtQyplvSE1AbVuaIFzbQZi0rmh7SgXuinoMnofbUFenuChDgkaQZyeng5CB3kDr5fgJXgJfdfGhYGhNxj7vHne84TyW4InHrLAEDHmixlyE+NGexr+2pWv6Ug6L+gPQcN62/F4OlztBXgIMxFuAkD86dCT58HUwAvYVMjOOsjzYzwZasLQEd5Jg4dR4IGBhgn78DQxr9fE2NOA54H75avxcZk4MdQV8kjI0+1r5oW8cdXGgKiTxoa0U/CgRwOV1J9aDmVDHi+rMR7PDx6O/ypo5u0gb+DlCJ7/B/r5S+7g0ffc7EefeQOEccsQzj9seOxxnyeNHgY6//s/jP2/TYMIw0sKD2PjNwEX6tB6aDgEQ7YP2zHoAuEj5dPIyXNEfYBCPqmkLqRaFvrlcZSTYMu+5fnLPP0gJmvw6PX4dFP2K7bhCUO/Vt5R67H95tDWPZ4EL22nefD0Aw0BUFo9Jtf8Iln/VK9/7oE39Z67WPN4aS+0gVc9g0h77U2uu2vfMXgMBxlWIVyyi9HdxbD+G5z+i8YwSfrCZTc59b6bvfrvBo+FymYDPbABD94HNfAuGXhmdD0wOvPs81wMPPN4gxPqmPEXe60NPLvDm5cvwAYMvAI63bxNsd6mDP1fB+/Q1Puu0zGen50RWNJThhO0NpiRl9EGovGtRxwerhyeOu0uX/vchx2cSaFnZSSdQF7gcRYI0qS6y5zPichJs0TK3HZrW743rGgsAB46PTTvsIiLgZtAXuBx+pSeIpX19KjZ2Vm/8LSI/rM68wWo0/6tg3fo2D2PB2WDAB7OE14J7xbBqmx2IrZv374dWzTKY52kBl45jb+Ta5lVmWh8yxH3wcxld7gJeAz5MEuFE3vRgNgEaDUZmA3kDBd4Lm5DT8iLxfTVJiAneTy8BgGvQ8BrETCRmPW1m4bAgw7M3MeEYepj2EjvmBQ+6knG2DfwDDzaEVMP3vmZK+7w8TPuyvX/qBua9HgwfgkcC8s0aS0aZABZ7BURgTV/qE+/MoLAhyDtJXiEToLIMFXmcckN5HHeLJcEqew/2x4sOFuCBy/VCjoYTSvw9IMawCSBwjYA1wao5fTxbvcBhw41ARXWrCGFfsAVWruG41izBh34wzbLsF0h/Txm6WDBJq93Hbwj7551H974om748EBcgyYBkYXldivwNFQaqKTySaGmrLubbYAByORPeygddrI+CZuEkMeZWqg5uIDRBnQajW054s5fvOKOTDeCBxhi70Fp8s/mJHBQYcibafBCMiyLY7rhWe2n8Ujm8QycrOyNejx4Fy5+6I5On3UffXyrbuByjAf48FoC5LGgTrsFz4/x1DtW4O2SHsTkPcaT5yc9m8zXr0aAZ0SeltEeVB637cGE2v874cJsHDwaPMdlMuyUrzKQTym5Ls+n4gmnlKHnknmsAwYYq6f2BBWvloBOKQfZLMBDeIj/2clf0uvu8C8GACR/oXEf8uSPMCJPPogx4AYTOF73IHg8aOlgG4dd//yufzS2bcrB402dOOeu/uY/Y2GSdXx+HW99O9h968Gbmf3IHTv5gbv6iYFnQAw2EL26/h68i5dq4H1q4PWq462ewQbcwGvyLxKDY7DhyPP6R+Pbphw83vFT5921m/9lYzwD0WygBzYQTWw75i5euuqOv3/BXfvsv63Te9Dped5JTXd/eOlorA7ejLv+2f8YeAae2UAPbMDA60EnmxfqDy/Uy+sUjW8/5mYuX3Xvnp5x1z/vQ4/HD5SI2TK97ECry6DqxAY8eBcvX3XTp2fcx5//b25hRrO5nJ00XJfpRn83ZXU7bN9ATGMDAryL7uPPbxt4FnrmZgNpDHJQZKLx7cfdxSvX3Ikzs+43X9zxa/Cw8BWrEbgygJOm5QRp30EM8xYvr38TjhOh2YH1skJGT6SmrJw8DZmkBbhaJ/a119ITrqEPcqwLqdbj24V2BsLWtG2D3iwmcMt22nb1vGg0sSMOHt974gGqgUUAYKhylQC2tTEjT8rQaDQYzG+WQjfrphzaFcsj/AFYWManNTndXhzLqm2sz8CrHii8tlmlHrzZK9fcybOz7pMv7vgXGHlwhoa9d5BGKcEDoFJONkiWYX4oj8eS0oY6kj7znGK9IOoAtFmB19A2C1Fj0UTSNbX8uZtSNL7juJv98Jo7cW7W/eZWevBCoVw9VAuEdWnAAxhSB7ald2tm7Fo/ZEOfgO4UvFZtM4MyL9eODUQT2+fAO3lu1n3SBnjNIAg1QIOhZWDYOkRtqCOlx0O5BYFXynfq8VK1zTyeebw2bCDad+wD7/HaBQ/gwCDxF4MoYSwFqKQstuGRAAnK43jMG6nxJetAOQ0o9uUDEXhjPBzCKytYDrrhQWN11Doqq7axLhvjmfejLSSl0dWPP3UzV667U+cuuU9v/bb+ZjFC4Y269gJaGq8M/3hchogh4wZgMvSTOtA4fRz6hh573JdhW3gSgE/WRxglWFoG9Q0/9RNfDseoK1R3N22DPgPPwJP2FdqOrl6/6WYu3XCnz15yn3/x25hBhgpYnhmV2UD3NhBNXv/M7bl8w20/d8mdvGXgmVF1b1TWh637MFq+aqtbsnyj+/Xr427s7f3m8doYIJuBtTYw66NwH0Ubt065dRsn3erx3e6d/WcMPAPPbKAHNhDtOXDObd99ygHAo9NXrdN70OnmBcJeYJD6Jdqw/X03sXnajU4cdrsOXjbwDDyzgR7YgIHXg04epDu5nWs6b27gGXjm4QqwAQOvgE43r5DOK1S5nwy8AQWP3wVM+pIRPrBiH1rJ7wZh4A0oePQm+qOZBA5fTcKXcu0LR/nAZ+AZeA6fICOIMtXf/5PHbLs7IHMHj5OoMXGa234CtJqojAspj0NGTlbm+j/kZfVaChrP0H3z3dOPLnSvLFzkJzgzP23Kb+fRSyBEw3fx6D1kOEdZyMhv8fG7epA9cOCA/24fvt332muvxb7hpz98iTYybPSxoXP+O34hmNgeymFfezx5zgZed3DJvtTbuYOHCrEa4IHnXrq3LChh6ZBuHGCV8HEFg19doJYNEWzqAMR6lQTy8EcZpt2CBz38yCUAIggECwYugQEUt2/f9mXYBqTS0KEDod6dO3diHgn6qRdlWBfqoC62ReYllZM3BZZnKtvDPEuzgbFn4GmDBzx6eY6+qADNl6utq9P7cnGtBE/LSb2yjMzvdhvGDkMFCNAlPYkGD8chCxhYL2AEaCwfAoqyWrfUQxnZHuhCfcjjcaTIR50h74jjBl42kMk+53bPwNPeJwQe8uQ6Ox1uaqAkRBI8hqVaF/d1W9gZ3aTS0KFHwwEjlvq119NGngQLdAA0ejO5LfXL8rptUk62U+ZjW7dJH7f9zsEsDXiATntFDZreTwJPy/XCQLRxS4MOeTwaNsDR3g7Hmnkjrds8XucA9MI2QnWUBjxAF/NEagyHxmugksCDbMij4lUQGDPG6oFslw9XUF8n4NHrYcxGD8aLBPCQjwcs0M18lAF43JeejXlItbcCnNrrYt/GeMVAmzt4AIohHmCAUcg8ejlAJV8NgTLy1Q9f+6tHcnstRbfgAQYYMH4EBUaNH0NBbMuHIoQEchoIHCNQAJK6pX6WRyrr95XW6pUy2EZb5I8wIo/gIw39eF5ap+13Bm7u4NmFaX5hZNgo+4rgSW8nj9t2834te/8YeAX+A12HjdJYDLz+Bktey9C2gddj8AAUQk7502EcvBzy+NPHQxfS8voLVAOvx+AZIP0FSF7Xy8Az8OpPSPMyMtPbeLMx8Aw8A68AGzDwCuh08wCNHmDQ+sTAM/DM4xVgAwZeAZ0+aHd3O99GD98T8DBFi7NX5DKfdi8IJ1FzBky75UPyWbUtpNvyGg3O+mSuT3oCHjtbz7VkfjspQMkSPNadRduoy1IDrpUNGHi1UNPAM1hawZLl8VKBJydPIzQNhaX0eDJElB+lrHdObSUCQ1w/6TrwugnKpwFPtg8TurE6Au2gDqb2fTyDmLaQlJYKPN1IGLWGD3l4jYTMBzQAQUIASOQ+dCMPf7oe7LcCD+GtDHG52FbXAV0GnoEXsjGZF+07PON27T/rtuycdsfe+zholLJAN9utjFvrDsnD0CV0LAMQ4IGwHypHObmGj3mtyuA4gJXgybK2baC1awMx8I6fKhY8GLYMDUPhJsALASBhozfSurgf8lKyfKgTcbxhvWCT0DWkw/IMUNpAacADTDoMDMEAaLQcTiatx+OJ6zRUl5bR+2hHCGItZ/sGnLaB0oDXYMSBVz+g8TB0eC4JH6BZsOhFDx9PECA3eMaEVz+gTDPwvP6fP+9lqB9pQ5trT0htjGegSTsJbecOHoxWh2gM+eRYLSQnX/2A4wAJZQkV9QSfaqpXTFBWeqhQnZRr1Ta2I9SpBp6BF7ILmZc7eLIy2zaDNBuYswEDz+Zq5vok20AL32wNPAPPwCvABgy8AjrdvEDYCwxSvxh4Bp55vAJsINp3aMbt2nfWbdkx7Y6fzPcf6IN0R7NzNa/WzAYMvALuds0uiB0bDGCjvYcuuJ37zrhNO951UydvWNhhIJoN9MAGor2TF9yuvWfc5h3vumMGnhldm0aHby2Evglhnru55x5c8Lhe7+WR2FSzQTYYftQEadp+MPCaA5bUjx68nXvnQs2qeTxMD2uYr6nu6EnLhJI6rOr5AKkd8KreH3mdn4H346fN44mbkYHXmQdrF9BSgYfZ/pykjFROVMaJhVYmcOI0JmJj0jPkmk1+1h6Qr2+QE7m1jO9UhqaLl8+1MRCisn2ctF3fr03s1hfnB9/5nntl4SL3o+8+kTq00zqwz2/x8SMnSWMu/TEUfP8cZeWnwAie1BnSBzn+QsdlO6UufIAFnyZDeSkzaNulAk93PgxXwyfX3VEeoEGO4DEf5YMQiTs8YYesLxdaOhTII9z1ckInYF7wy1djbQ/JZQUez5cpjFrDgK8UATR8GoxyCCn1l4gIFGCRcnKf+UgBLY5Bv8znNuqQoSs/omngTV5wZR3jwbj9uruh4fpFzQM8DQVglcDiuNynUYXah2Noc0ie5fJOQzAg7/bt2zHwQu0AEBoywAJoQ3CF6pJ6oUuCJ48N8napPB6MVYaaoXAza/BCD1fQDgkOtjWc3miGhj1k2tOGdOZpZDBs/dMeD/XTm1E29P1zyGhQugEPYMpv/aFurT/Pvimr7mhPSTwejNt7NxGyhTxKEeC16/F6CR6MWHuoVl6Ixgg5AIqUeVmDR70yRXtRj8wbtO3SgAfoYl6lNq7SYzzAKMdzABEPM+TDFV5E6JPlKSvrCUGiPd68BM/W0ObaTSOkk22SaRZjPG3E/OKs9ngw9BCgeYIXAhvnr9ss+2RQtksDHoCSTxYRZupXP/CiAAyGpChz3ze/PVc28KQRcFCWTxu9HvWUEjqRL+WxzToJbV1X4EmlLCvlpB7qQ5oFeDBuHcpNTk76PPngBODpnw41ZchKcGU56gvVSd0sh/NLkrNQc54rDXjSIG27N/9Lsn4urp+jPQfL+1TTDKM4w7C+z7fv6+Bt3P6uO3rCVieYweVrcNa/c/0b7T543u3Yc9pt3HbcHT1xvT6msQ4yAzQbyM8GDDzx7wsztPwMzfo23rcGnoFnUU4BNmDgFdDpdveP3/0HsT8MPAPPPF4BNmDgFdDpg3iHt3OOe3kDr4/B4xIbOVvEDDxu4GXtj3KBlzAnsqydV4Z2YVoW5j6GluyUoX3WhvCNwIO3bfd7bt3mo+7A1EfFxvsGXtv9b+CFDbvswEdb3znt1m894dasP+z2HLrS9oXP6gTlxGc5wViuOpATqWU+VhuwDLY5WVlu47gsw3Y3TH4OTLSm7APD97tnn/gH989P/aP7s6//adt9xZUDmFDMCcfUDa+Fn5y4zFCSE5DlMZYjeC+88EJssnRoIrKetBx69YNsI+vVuqQMvS3CXfx4Xrou6JDlIIuyPA+eP+uUxygDHbIO7iOv35YZRZt3lgM837kpPJ5fFqS+/oqyeikP9h947qXYglZAhlcyIEUZvcSIeQBULh3ybZs3z3ULHvTAQGic1MsUhkSDg+HCmJHyOI1ZGhnloBOgUhZ6qAt5MPo0r35AGakfZbUu1oH67ty5428WLIMbAP4gE2ov8uV5ch951Mu80NiV54Hz5fkhb3R0NFZe6irjdrRl52m3AR7v7cNub4Eez3dOCvAgB6jkUpsQQFqGnQ+gcAz7cpvHkUKf1y9eOSGPd7MNY+QrGGiYNDoYErdhyNyW9aEM5GBsyJf6pByOQw7Hm8nJMlq3PIYXFEmwcQz7OBfWIeW5jXMgIMjT7dXtZDmkKEugmQ95AKnzebxfUg8eQs2JjUfd5LH+GONprweQCBM7HvshrwVvh4WqkIMMQ1SdhsJS6u4mlYYD44EXwh+8BIGEfhhd0k96zHZgQX3yp0NXgIS8pJ82dsgDyGb9oUHDeUlPhuM4n6Qf5KX+ZqBKubJvRzv2nnWbd5z0Y7xdBy/FTrLnjU/p8dAuQAOvFPJ2PK5hRL70cnK7l+cKY8IfvQhSLF6V3gNGro0u1EYYrg5JIZfGQHVZ7EtvGqpP5qUBD/LQSe8LyCTAadop62xXXpYt03a0ccd7bnzTu27l2EG3Y1/zu1fuDQ+8Rg9wydc3sA30evf/9NkGbwcZerOY19NgDw07lOeYj7r9WHDRiw2vC8xijIc6YHgwQHg6GBL28ZMhGfL1mAxldXhHjyG9IOSgS4KLOqR+yGjwkMebArb5h7aEwru04EEO7Tt79mzM21F/qG04ps8BeZUBb93WU27thuNu5dhk8eDNm+chwCsaGPrJsRwvFFPAFYISx3Fs/vd/6I9TF9IYiAkvv00KM7MCj7AQDL3P82O+DMMkYDBohIaAAg8XZJhI3dRFuKUuHWpSFgavfyjP46xXyyTpQznq1O2iTuTrn5Ql/FoG+1KO+sqeRmUDr50O83DxRbTiDg0dzY61U4fJ3vN81hfZ9UW0bku5PF7ai9vqyaOBl52RpL0mJpe+z/sOPISeMnSMvTms5vW0jA4vzUDSG4j1VT591XfgmSHkYwjWr73tVwNPjQ3NAHtrgIPa3x68NbWnmtuL/neCQVB/cjioBjko5x1NbDnp1mw45lasPei27btoF97gNxvogQ1E6zZj1soceNv3GniDcse18yw2pDbwenB3MyMv1sjL2P8GnoFnoWUBNmDgZdzpemqTnOLFOy+nT3H6Uz9OeeK5WNqZN48mNp90q2tjvG02xuvq7s+5laF5jTKPxgrgdu3a5ecxoizzLe3MmPup30oFHmaYyFkperIyVg1gpgomRs9/6GG/DXkth+li1MNjMd3q9Q5D9813Tz+60L2ycJF76Bvf6hgAgBQCDFDBy8Eb0jjkLPukcpS1tHog+lBz9dtTbvmaA27bnpm6YfT6YgMqLNHB11dZt1+eI17VgHyuv1sglu0AKr1KAfDpPC4lgl7WgTQL8CRIUje3ufaO+wCUISZm+3OJEI9bWj3Y5DUtDXhJk5oBCVeMo+EheAgjUp5cSA51NFtmxLKdpCGvJvVo8Frty7K2XT0ISwOentjMUBGp9FwAysMjPGMIPBirBA0yCDvzmjAN8EIrwQnNmTNn6u8mSVrPRg/IMpZWDzheUz/GG62FmlsLDDWTPB4byrQd8GSoCv0SYOrLMsU4LjTG06FkaEzXKlTNsp2mq3igSwNektfS47d2wIOBwTti7AjokrxdFmM81AWvh38fSPgAHfKQQqYZYCEgDZLiIcnjGpQGPJwcPJR87YMOM+VxPq2UeaG1eTxO+VAnZgUedBM+/o9O/h9PH2NoqfMRsgLQUFstrxogRhObTrrV66bcitUH3NbdxT3VrIpBAabQTwJYlXO18+j8JhBNbDrhRtcddctX73dbd1+wu2zGM1nMODs3zir3nYFnoNnNtgAbiMY3nXCr1h11y1bvd1vM45kRFmCEVfZsSedm4Jmh2c2mABsw8Aro9KS7oOUPzngwGt847UYnaqHmO+ft7mcgmg30wAYMvB50snmywfFkaa91NLbxhPB49u+EtB1ncgZTNzYQjYlQc7OFmhZmWQTQExsw8MzQemJo3XiHKpY18Aw8A68AG4jGNtSeao7ud5t33XuqyfVrXBeHGf6Y6Y983IG4fg4z/rkN2dBkZE5Upq7QZGbe1bB8py63eLkbeuxxr1+uTIcsXtGAVzXglQ2Y5MzyltrYqx9sIAxe4EupAEJD5fOee8kvOOXJArIF4nUNoeU+hFov0wHA+KMuwIblPKF1dAaeAVa3kwI8Vrd1R2trHm+p8HgelkUvNnyiWFcG8GKg1DoAQOEY5OW2LI86fNnaSnIAK1/xIGVt2yCrmg0EwcNJAhgZ8oXCQ8ClvRbKSoggE9OzeHl9X3rQJECr1uF2PnYTgQ1Eaze861aNH3FLR/e5Tbs+uBfmKfcdChkBFT2bNCgJkdyWMnpbwqqP2b4Za9VsIAgeYNEhZBJ48GaQr3fM0LAvC3mfFxgvIt+PBcUr+pCHOjXI0B3ytjbGMxjrNqecRD/k3wNv1T63aeecx/PGLkJCHyqql8Di5ADJ/O//0D/8kOFkDMTaK/kQVkoZGWbKjgJ8Ui70YAXyBp6BJ+2m37ajNbVQ800BXtqT8OBJb9eHd56052pyBnqWNmDg2c3i3jDB+qJnfdExeDok1OFllncH02Xepmo20DF4VesIOx+Du5c2YOBZeNWz8KqXhl32ugw8A8/AK8AGotXrj7uVY4fdkrf2uo07ztlFKOAilP3ubO3LPgw38Aw0u9kWYAMGXpudjv9d6lk95hGy9whV71MDz8Azj9emDWRxU6g0ePjfop77mUWnmQ7zcN3aQDT69jG3YuyQW/LWHrd+x9lK3f0MPAOkW0DyKj8H3tpDbsnKPW7D9vzAAwRy8vPwUz+Jr2KAu6+tOK/LqYnZWNGAlQr+I5MPPVz/lp6ecI2VEXpSNnVqD4h9HkOqdbHjpVxojJe2bV6fPk+84qK2cJj1yb7w9YkyoTbKmUQ4jkXFodlENrm8HDejnoAHo9KrDGAoMQOqGZY0FgKk86BrgVhShONaPwwY+Q0G3SKeDy1XqsOgFvnKfGxz6VSrtuHc5TmhLPLwp3WiPQ8895K/ybDMfd/4c4c/yuIc5XnyJkB5yiE18AYEPBijN6jaKx6kEcjtJEh0eW/c6rUUNHikaXRKmYZtvZ5QgQqjTnpFRZq2QSapP6AX+mWbsC9Blse4DX0SPOZbWg7IQtchd4/XzFBlg2A4oTs0Qi4YFqEKGa43+J8/X5eh3iSYeRwpZGSo2SzchHyz80nTNpRHuKzr5L7ug2b18TxQL6IH6kBqIJYXOly33MELGSMNRqZJkOjyeh86kIdQE2kanZRBnQ0hqgKdskybgZCmbSEZ6g6lzeoLyTMPNysNMY9ZWjyU0ei6Y25F7eHK+pweruDu68MrEbbxzl83jgSD1wYUMlzkJYEnwdJ1ol3aM6C+2NhTtBkG2wyEtG0L1cuHKfX+qNXbrD60J+ncdb8RNhvjFQ8drkVPwENFMDYZCoWMm2BIOQmGPM7yMi/0bhYYYF2fekpKY68fX7zc4WkrYJW6YnWoV2JAP85PyqRpW6xdNZ0SOqlPtk+2C/UCPNQXk2kSahp4pQFvyi1fM+neWLHbrd92Jhaq4cLan/WB2UD2NhCNrjPwzLCyNyzr0+Z9auCZV7eopgAbiFatm3LL1ky611fsdm9bqGlGWIARDqJ3NPDM0OxmU4ANRKsm5sZ45vGax124F24AAAbySURBVOSDeFe2c87PJgy8Au52ZtD5GXS/9G20auKoW7b6oHt9xTvu7a2nLewwEM0GemADlQfPz+xQk6r75a7YD+3csGGDu3XrlnvyyScN2DaAjd6aOOqWrj7oRla849ZV0OMZePmGdQZeZ/1befD6wWtYGzsz3n7ut+it8bkx3sjyanq8fr441vbqAllZ8GKTh/Xk6NqKb0wsxqRoTDzGRGOs6vYTpBcvb1hNoSc1y1UPEhA5Gdzr/Oa3vW5OnPay4jUOnNwsJ4PH9N033z396EL3ysJFfvW4PJZ2e2RkxH311Vd+LDY6Ouq3nXPu7t277plnnmkYm127dg2H/Q/jN5aRYzmEmPzJfLYJYz7ko16UxzZ/KKvlcIztYXuRh7ZQtkppZcGTFym0shvHYewEAisDAIFfIZDwFVupE3IaPujjagXIYoUBXttw/0+f9e+TYXnIyJUIyEeeLEvZoQzAgy4ABuO/fft2HbbQ+AyGPj09XTd2yACI2dnZeh7bRr0ok/RwBeVQnrChHWgD4JJ6dL16X8pWYTta6b9/fsC9VnCo+eDwH7nHH/4D9+QjUcPfX//FH8YuUrsd3ww8AgBI6q90SAEePKoHha+0SFhPqAFtKCeehCW1s93zDcmHDJ4wIkUZpCGIACLyk/SGylA2BBDyCCLlkCL/5s2b/gYh4ZcyVdkuDXh5dmiSQcNDpQUPsgwLmUqPlwSUzk9cZxdYk5dln4Sg0uDBC4U8W1I+2hfSK9sNfSHvFgKP4SkAlDqquG3g1T4l3czj6RAShqCB0u+GobFArww1G8oJj8cyeaQhQDR4IRm0BZAkwZBUhueQFjzoYUgKbxcaN1JnFdJo5dgRt2z0gBtZ9o5bt6WaM1e69XgNY7LawxHp8WAM8J5ynAbIMIbUcgAZfzEDCrzeEMezHOMBHjkW0+ChPhi9DPPgrfCAJE/w0A497gPsVYavsuABAIaEsbT2hFMeBwQMAf2TSPF0EzARIKln6LHHG59W6ldcvDxyD0aOBWseTtZPvQx7JZBZgEd4kp4cAiwZDgIy/uiFZAhK70QZmRIWho08BpB0HgBv1TbUj/pkn1Rhu7LgleXi6FCzLO1qpx3NQs129Jjsvf9LGng5j7GCYWXOdWZt4PCAgC9rvYOsz8DLGAKEiwwdkcoxX78YGkJA+ZNjvn45h7K304O3dNV+99qyXW5iy/t2V8sYxLIbgLXvXvjXy76IVqw94t4EeEt3ufHNBl4vO9/qKsboy9DvAw3ejRs3XKu/Mlwka0P1ADXwWsBnRl89oy/DNTXwDDwb1xcwrjfwDDwDz8DrbVjTanyH42UIS7JsA2eK2L8Iemtr+hqaxxsQj0fgMAUL078MvILBW77msFvy1n73b2/udOOb3qvcHV7faeT+IHo8nD+gM/AMvMxh5+wRzBrhNmaR6FUCAO/D9WvdzM/+tv538fln3PWZC3P/ZvjwytyrIF4emXtFRE0HXhGBydTQqVcZ6MnPzWau/OA73/OvdPjRd5/oug8AkvxNTk76FQVyNQJvOgZesdDhOkRV9XiYnKxfuwBIJAghj3dt+ribfeGf6vChk1CG0EIHPw6JVQvIRwq50LxM5LEsDZ9pVuBhLqVctsNVAFwpwPqYGngGXtd3ehqTTgHegkUv1qHAcb1SIATejQ+vuEtLFsfAk+v54EEBE/TFwEt49QPkII9yuo1Z7GPsJpfspNFp4JUIvF+/udONVWiMB8gAjDTEEHgfHdhTDzMZcspwE+XTgBdasycnSxNW2Z4strFqACC1o8vAKxl44xur83AlDXiAbvZffuHg5ereLweP1w4U7cqaxyseonavGeSjZWsOuTfe2ud+vWSHG9t4qq07ZycV9qpMGvDwYAV/dehu3PBhZiceD+eFcFKOIXmuyAt5vCzHeNrrwRPqleVsj3m84mGtJHihJ5kyj+/ShKeDx2OIifTK2hVzec/+vbs2dXjuqaZ4Axj14IFJ/emmeGEuAJMhZujJJwHICjzok69rwNNN/WCF/8eTTz6xnQQn22hpPpBWEry0xiI9XdJ2Wl0ml4+BVrVfo6VrDrnX39rnfrVkh1tboVAzzQVLgk3mp9FjMgZduzYQLVt9yL2x0sCTsMntdjvU5A3CNDZg4A3IXM00xmAyvbtpREtXT7rXV+51v3pju1u78WRlnmqmMSLp2ZK20+gxmd4ZbFX6eqDBq8pFtPPoP/A9eCMr97rFb2x3azYMlsczg+0/g63KNTPwClh9XBXjsfPo/MYVLR2ddK+vMI9nRtS5EVnftd93Bp55vIF6oFaWm4SBZ+AZeAXYQPTm6EE3smKP+9c3trnV60/YRSjgIpTlLmztaD9k7LTPDDwDzW62BdjA/wMUtu8mqULK8wAAAABJRU5ErkJggg==;" vertex="1" parent="1">
          <mxGeometry x="10" y="60" width="222" height="244" as="geometry" />
        </mxCell>
      </root>
    </mxGraphModel>
  </diagram>
</mxfile>
